<?xml version="1.0" ?><svg viewBox="0 0 22.494 19.746" xmlns="http://www.w3.org/2000/svg"><g data-name="Layer 2" id="Layer_2"><g data-name="Layer 1" id="Layer_1-2"><path d="M11.361,15.111c0,.49-.729.309-1.022.341a.341.341,0,0,1,0-.682h.341c-.01-.271-.039-.676.34-.682C11.51,14.083,11.33,14.818,11.361,15.111ZM3.977,14.77H3.636v-.341a.341.341,0,0,0-.682,0c.032.294-.149,1.028.341,1.023h.682A.341.341,0,0,0,3.977,14.77ZM3.3,6.59a.341.341,0,0,0,.341-.34V4.886a.341.341,0,0,0-.682,0V6.25A.341.341,0,0,0,3.3,6.59Zm0,6.362a.341.341,0,0,0,.341-.34V11.248a.341.341,0,0,0-.682,0v1.364A.341.341,0,0,0,3.3,12.952Zm0-3.181a.341.341,0,0,0,.341-.34V8.068a.341.341,0,0,0-.682,0V9.431A.341.341,0,0,0,3.3,9.771Zm.682-7.725H3.3c-.489-.006-.31.73-.341,1.023a.341.341,0,0,0,.682,0V2.728h.341A.341.341,0,0,0,3.977,2.046Zm4.048,0H6.29a.341.341,0,0,0,0,.682H8.025A.341.341,0,0,0,8.025,2.046Zm2.995,0h-.681a.341.341,0,0,0,0,.682h.341v.341a.341.341,0,0,0,.681,0C11.33,2.776,11.51,2.04,11.02,2.046Zm0,8.862a.34.34,0,0,0-.34.34v1.364a.341.341,0,0,0,.681,0V11.248A.34.34,0,0,0,11.02,10.908Zm0-3.181a.34.34,0,0,0-.34.341V9.431a.341.341,0,0,0,.681,0V8.068A.34.34,0,0,0,11.02,7.727Zm0-3.182a.341.341,0,0,0-.34.341V6.25a.341.341,0,0,0,.681,0V4.886A.341.341,0,0,0,11.02,4.545Zm6.045,8.1H15.338a.341.341,0,0,0,0,.681h1.727A.341.341,0,0,0,17.065,12.648Zm.545,4.168a.341.341,0,0,0,0,.681A.341.341,0,0,0,17.61,16.816Zm4.884-4.2v3.636A1.25,1.25,0,0,1,21.245,17.5H20.2a2.614,2.614,0,0,1-5.176,0H9.746a2.614,2.614,0,0,1-5.176,0H.341A.341.341,0,0,1,0,17.156c0-.459.623-.322.909-.34V1.7A1.707,1.707,0,0,1,2.613,0H11.7a1.706,1.706,0,0,1,1.7,1.7V4.091h2.705a2.611,2.611,0,0,1,2.4,1.584l2.053,4.791A2.16,2.16,0,0,1,22.494,12.612ZM7.158,15.225a1.932,1.932,0,0,0,0,3.863A1.932,1.932,0,0,0,7.158,15.225ZM12.725,1.7A1.024,1.024,0,0,0,11.7.682H2.613A1.024,1.024,0,0,0,1.591,1.7V16.816H4.57a2.614,2.614,0,0,1,5.176,0h2.979Zm2.954,7.363a1.389,1.389,0,0,0,1.386,1.387h2.754l-1.933-4.51a2.068,2.068,0,0,0-2.207-1.171Zm1.931,6.158a1.932,1.932,0,0,0,0,3.863A1.932,1.932,0,0,0,17.61,15.225Zm2.726-4.09H17.065A2.071,2.071,0,0,1,15,9.067V4.773H13.406V16.816h1.616a2.614,2.614,0,0,1,5.176,0c.51-.052,1.593.244,1.615-.568V15.225H20.648a.341.341,0,1,1,0-.682h1.165V13.329H20.648a.341.341,0,1,1,0-.681h1.165A1.48,1.48,0,0,0,20.336,11.135ZM7.158,16.816a.341.341,0,0,0,0,.681A.341.341,0,0,0,7.158,16.816Z" data-name="free delivery" id="free_delivery"/></g></g></svg>